<svg width="14" height="11" viewBox="0 0 14 11" fill="none" xmlns="http://www.w3.org/2000/svg">
<path d="M13.2806 7.28063L10.2806 10.2806C10.1397 10.4215 9.94863 10.5007 9.74938 10.5007C9.55012 10.5007 9.35902 10.4215 9.21813 10.2806C9.07723 10.1397 8.99807 9.94863 8.99807 9.74938C8.99807 9.55012 9.07723 9.35902 9.21813 9.21813L10.9375 7.5H6.75C4.9604 7.49801 3.24466 6.78622 1.97922 5.52078C0.713781 4.25534 0.00198514 2.5396 0 0.75C0 0.551088 0.0790177 0.360322 0.21967 0.21967C0.360322 0.0790175 0.551088 0 0.75 0C0.948912 0 1.13968 0.0790175 1.28033 0.21967C1.42098 0.360322 1.5 0.551088 1.5 0.75C1.50149 2.14193 2.05509 3.47642 3.03933 4.46067C4.02358 5.44491 5.35807 5.99851 6.75 6H10.9375L9.2175 4.28062C9.0766 4.13973 8.99745 3.94863 8.99745 3.74937C8.99745 3.55012 9.0766 3.35902 9.2175 3.21812C9.3584 3.07723 9.54949 2.99807 9.74875 2.99807C9.94801 2.99807 10.1391 3.07723 10.28 3.21812L13.28 6.21813C13.35 6.28776 13.4055 6.37052 13.4434 6.46167C13.4813 6.55281 13.5008 6.65054 13.5009 6.74925C13.501 6.84796 13.4815 6.94571 13.4437 7.03689C13.4059 7.12808 13.3505 7.21091 13.2806 7.28063Z" fill="white" fill-opacity="0.5"/>
</svg>
